<svg xmlns="http://www.w3.org/2000/svg" xmlns:xlink="http://www.w3.org/1999/xlink" zoomAndPan="magnify" viewBox="0 0 1500 562.499983" preserveAspectRatio="xMidYMid meet" version="1.0" shape-rendering="geometricPrecision"><defs><g/></defs><g fill="#1b2a45" fill-opacity="1"><g transform="translate(459.890128, 291.965429)"><g><path d="M 56.375 0.671875 C 47.113281 0.671875 38.773438 -1.394531 31.359375 -5.53125 C 23.941406 -9.664062 18.097656 -15.375 13.828125 -22.65625 C 9.554688 -29.9375 7.421875 -38.117188 7.421875 -47.203125 C 7.421875 -56.285156 9.554688 -64.46875 13.828125 -71.75 C 18.097656 -79.03125 23.941406 -84.738281 31.359375 -88.875 C 38.773438 -93.019531 47.113281 -95.09375 56.375 -95.09375 C 63.207031 -95.09375 69.5 -93.988281 75.25 -91.78125 C 81.007812 -89.582031 85.914062 -86.320312 89.96875 -82 L 85.640625 -77.546875 C 78.085938 -85.015625 68.421875 -88.75 56.640625 -88.75 C 48.734375 -88.75 41.539062 -86.945312 35.0625 -83.34375 C 28.59375 -79.75 23.515625 -74.78125 19.828125 -68.4375 C 16.140625 -62.101562 14.296875 -55.023438 14.296875 -47.203125 C 14.296875 -39.378906 16.140625 -32.296875 19.828125 -25.953125 C 23.515625 -19.617188 28.59375 -14.65625 35.0625 -11.0625 C 41.539062 -7.46875 48.734375 -5.671875 56.640625 -5.671875 C 68.335938 -5.671875 78.003906 -9.445312 85.640625 -17 L 89.96875 -12.546875 C 85.914062 -8.222656 80.988281 -4.9375 75.1875 -2.6875 C 69.394531 -0.445312 63.125 0.671875 56.375 0.671875 Z M 56.375 0.671875 "/></g></g></g><g fill="#1b2a45" fill-opacity="1"><g transform="translate(557.138791, 291.965429)"><g><path d="M 56.515625 0.671875 C 47.253906 0.671875 38.890625 -1.414062 31.421875 -5.59375 C 23.960938 -9.78125 18.097656 -15.515625 13.828125 -22.796875 C 9.554688 -30.078125 7.421875 -38.210938 7.421875 -47.203125 C 7.421875 -56.191406 9.554688 -64.328125 13.828125 -71.609375 C 18.097656 -78.898438 23.960938 -84.632812 31.421875 -88.8125 C 38.890625 -93 47.253906 -95.09375 56.515625 -95.09375 C 65.773438 -95.09375 74.132812 -93.019531 81.59375 -88.875 C 89.0625 -84.738281 94.929688 -79.03125 99.203125 -71.75 C 103.472656 -64.46875 105.609375 -56.285156 105.609375 -47.203125 C 105.609375 -38.117188 103.472656 -29.9375 99.203125 -22.65625 C 94.929688 -15.375 89.0625 -9.664062 81.59375 -5.53125 C 74.132812 -1.394531 65.773438 0.671875 56.515625 0.671875 Z M 56.515625 -5.671875 C 64.421875 -5.671875 71.566406 -7.46875 77.953125 -11.0625 C 84.335938 -14.65625 89.375 -19.617188 93.0625 -25.953125 C 96.75 -32.296875 98.59375 -39.378906 98.59375 -47.203125 C 98.59375 -55.023438 96.75 -62.101562 93.0625 -68.4375 C 89.375 -74.78125 84.335938 -79.75 77.953125 -83.34375 C 71.566406 -86.945312 64.421875 -88.75 56.515625 -88.75 C 48.597656 -88.75 41.425781 -86.945312 35 -83.34375 C 28.570312 -79.75 23.515625 -74.78125 19.828125 -68.4375 C 16.140625 -62.101562 14.296875 -55.023438 14.296875 -47.203125 C 14.296875 -39.378906 16.140625 -32.296875 19.828125 -25.953125 C 23.515625 -19.617188 28.570312 -14.65625 35 -11.0625 C 41.425781 -7.46875 48.597656 -5.671875 56.515625 -5.671875 Z M 56.515625 -5.671875 "/></g></g></g><g fill="#1b2a45" fill-opacity="1"><g transform="translate(672.86603, 291.965429)"><g><path d="M 93.328125 -94.40625 L 93.328125 0 L 87.671875 0 L 23.328125 -82 L 23.328125 0 L 16.453125 0 L 16.453125 -94.40625 L 22.25 -94.40625 L 86.453125 -12.40625 L 86.453125 -94.40625 Z M 93.328125 -94.40625 "/></g></g></g><g fill="#1b2a45" fill-opacity="1"><g transform="translate(785.356142, 291.965429)"><g><path d="M 41.265625 0.671875 C 34.347656 0.671875 27.765625 -0.515625 21.515625 -2.890625 C 15.265625 -5.273438 10.382812 -8.359375 6.875 -12.140625 L 9.984375 -17.265625 C 13.304688 -13.753906 17.773438 -10.894531 23.390625 -8.6875 C 29.015625 -6.488281 34.929688 -5.390625 41.140625 -5.390625 C 50.128906 -5.390625 56.914062 -7.097656 61.5 -10.515625 C 66.082031 -13.929688 68.375 -18.382812 68.375 -23.875 C 68.375 -28.101562 67.160156 -31.472656 64.734375 -33.984375 C 62.304688 -36.503906 59.296875 -38.4375 55.703125 -39.78125 C 52.109375 -41.132812 47.253906 -42.53125 41.140625 -43.96875 C 34.210938 -45.675781 28.65625 -47.335938 24.46875 -48.953125 C 20.289062 -50.578125 16.738281 -53.070312 13.8125 -56.4375 C 10.894531 -59.8125 9.4375 -64.332031 9.4375 -70 C 9.4375 -74.582031 10.648438 -78.785156 13.078125 -82.609375 C 15.503906 -86.429688 19.210938 -89.46875 24.203125 -91.71875 C 29.203125 -93.96875 35.429688 -95.09375 42.890625 -95.09375 C 48.109375 -95.09375 53.234375 -94.328125 58.265625 -92.796875 C 63.296875 -91.265625 67.65625 -89.195312 71.34375 -86.59375 L 68.78125 -81.0625 C 65.007812 -83.664062 60.851562 -85.640625 56.3125 -86.984375 C 51.769531 -88.335938 47.296875 -89.015625 42.890625 -89.015625 C 34.171875 -89.015625 27.5625 -87.257812 23.0625 -83.75 C 18.5625 -80.25 16.3125 -75.710938 16.3125 -70.140625 C 16.3125 -65.910156 17.523438 -62.535156 19.953125 -60.015625 C 22.390625 -57.503906 25.40625 -55.570312 29 -54.21875 C 32.59375 -52.875 37.492188 -51.4375 43.703125 -49.90625 C 50.617188 -48.195312 56.144531 -46.53125 60.28125 -44.90625 C 64.425781 -43.289062 67.957031 -40.84375 70.875 -37.5625 C 73.800781 -34.28125 75.265625 -29.851562 75.265625 -24.28125 C 75.265625 -19.695312 74.023438 -15.515625 71.546875 -11.734375 C 69.078125 -7.953125 65.28125 -4.9375 60.15625 -2.6875 C 55.03125 -0.445312 48.734375 0.671875 41.265625 0.671875 Z M 41.265625 0.671875 "/></g></g></g><g fill="#1b2a45" fill-opacity="1"><g transform="translate(870.195838, 291.965429)"><g><path d="M 53.40625 0.671875 C 41.445312 0.671875 32.160156 -2.785156 25.546875 -9.703125 C 18.941406 -16.628906 15.640625 -26.75 15.640625 -40.0625 L 15.640625 -94.40625 L 22.53125 -94.40625 L 22.53125 -40.328125 C 22.53125 -28.722656 25.179688 -20.046875 30.484375 -14.296875 C 35.785156 -8.546875 43.472656 -5.671875 53.546875 -5.671875 C 63.523438 -5.671875 71.164062 -8.546875 76.46875 -14.296875 C 81.78125 -20.046875 84.4375 -28.722656 84.4375 -40.328125 L 84.4375 -94.40625 L 91.3125 -94.40625 L 91.3125 -40.0625 C 91.3125 -26.75 87.984375 -16.628906 81.328125 -9.703125 C 74.671875 -2.785156 65.363281 0.671875 53.40625 0.671875 Z M 53.40625 0.671875 "/></g></g></g><g fill="#1b2a45" fill-opacity="1"><g transform="translate(979.853469, 291.965429)"><g><path d="M 16.453125 -94.40625 L 23.328125 -94.40625 L 23.328125 -6.203125 L 77.6875 -6.203125 L 77.6875 0 L 16.453125 0 Z M 16.453125 -94.40625 "/></g></g></g><g fill="#1b2a45" fill-opacity="1"><g transform="translate(1052.688821, 291.965429)"><g><path d="M 34.53125 -88.203125 L 0.546875 -88.203125 L 0.546875 -94.40625 L 75.390625 -94.40625 L 75.390625 -88.203125 L 41.40625 -88.203125 L 41.40625 0 L 34.53125 0 Z M 34.53125 -88.203125 "/></g></g></g><g fill="#1b2a45" fill-opacity="1"><g transform="translate(1131.324012, 291.965429)"><g><path d="M 16.453125 -94.40625 L 23.328125 -94.40625 L 23.328125 0 L 16.453125 0 Z M 16.453125 -94.40625 "/></g></g></g><g fill="#1b2a45" fill-opacity="1"><g transform="translate(1173.811343, 291.965429)"><g><path d="M 93.328125 -94.40625 L 93.328125 0 L 87.671875 0 L 23.328125 -82 L 23.328125 0 L 16.453125 0 L 16.453125 -94.40625 L 22.25 -94.40625 L 86.453125 -12.40625 L 86.453125 -94.40625 Z M 93.328125 -94.40625 "/></g></g></g><g fill="#1b2a45" fill-opacity="1"><g transform="translate(1286.301477, 291.965429)"><g><path d="M 83.890625 -46.796875 L 90.5 -46.796875 L 90.5 -11.46875 C 86.363281 -7.507812 81.347656 -4.492188 75.453125 -2.421875 C 69.566406 -0.359375 63.34375 0.671875 56.78125 0.671875 C 47.425781 0.671875 38.992188 -1.394531 31.484375 -5.53125 C 23.984375 -9.664062 18.097656 -15.375 13.828125 -22.65625 C 9.554688 -29.9375 7.421875 -38.117188 7.421875 -47.203125 C 7.421875 -56.285156 9.554688 -64.46875 13.828125 -71.75 C 18.097656 -79.03125 23.984375 -84.738281 31.484375 -88.875 C 38.992188 -93.019531 47.472656 -95.09375 56.921875 -95.09375 C 63.835938 -95.09375 70.195312 -93.988281 76 -91.78125 C 81.800781 -89.582031 86.769531 -86.367188 90.90625 -82.140625 L 86.59375 -77.546875 C 82.632812 -81.503906 78.203125 -84.359375 73.296875 -86.109375 C 68.398438 -87.867188 62.984375 -88.75 57.046875 -88.75 C 48.953125 -88.75 41.644531 -86.945312 35.125 -83.34375 C 28.613281 -79.75 23.515625 -74.78125 19.828125 -68.4375 C 16.140625 -62.101562 14.296875 -55.023438 14.296875 -47.203125 C 14.296875 -39.472656 16.160156 -32.4375 19.890625 -26.09375 C 23.617188 -19.757812 28.71875 -14.769531 35.1875 -11.125 C 41.664062 -7.488281 48.953125 -5.671875 57.046875 -5.671875 C 67.835938 -5.671875 76.785156 -8.546875 83.890625 -14.296875 Z M 83.890625 -46.796875 "/></g></g></g><g fill="#1b2a45" fill-opacity="1"><g transform="translate(109.578305, 292.614877)"><g><path d="M 110.421875 -1.8125 C 110.722656 -1.8125 110.875 -1.507812 110.875 -0.90625 C 110.875 -0.300781 110.722656 0 110.421875 0 C 106.910156 0 104.097656 -0.0507812 101.984375 -0.15625 L 90.359375 -0.296875 L 76.78125 -0.15625 C 74.976562 -0.0507812 72.515625 0 69.390625 0 C 69.085938 0 68.9375 -0.300781 68.9375 -0.90625 C 68.9375 -1.507812 69.085938 -1.8125 69.390625 -1.8125 C 73.117188 -1.8125 75.835938 -2.0625 77.546875 -2.5625 C 79.253906 -3.0625 80.410156 -4.015625 81.015625 -5.421875 C 81.617188 -6.835938 81.921875 -9.101562 81.921875 -12.21875 L 81.921875 -46.921875 L 33.1875 -46.921875 L 33.1875 -12.21875 C 33.1875 -9.195312 33.488281 -6.957031 34.09375 -5.5 C 34.695312 -4.039062 35.851562 -3.0625 37.5625 -2.5625 C 39.269531 -2.0625 41.984375 -1.8125 45.703125 -1.8125 C 45.910156 -1.8125 46.015625 -1.507812 46.015625 -0.90625 C 46.015625 -0.300781 45.910156 0 45.703125 0 C 42.191406 0 39.378906 -0.0507812 37.265625 -0.15625 L 24.140625 -0.296875 L 12.828125 -0.15625 C 10.816406 -0.0507812 8.050781 0 4.53125 0 C 4.320312 0 4.21875 -0.300781 4.21875 -0.90625 C 4.21875 -1.507812 4.320312 -1.8125 4.53125 -1.8125 C 8.050781 -1.8125 10.613281 -2.0625 12.21875 -2.5625 C 13.832031 -3.0625 14.9375 -4.039062 15.53125 -5.5 C 16.132812 -6.957031 16.4375 -9.195312 16.4375 -12.21875 L 16.4375 -82.0625 C 16.4375 -85.082031 16.132812 -87.296875 15.53125 -88.703125 C 14.9375 -90.109375 13.859375 -91.085938 12.296875 -91.640625 C 10.734375 -92.203125 8.242188 -92.484375 4.828125 -92.484375 C 4.523438 -92.484375 4.375 -92.78125 4.375 -93.375 C 4.375 -93.976562 4.523438 -94.28125 4.828125 -94.28125 L 12.96875 -94.140625 C 17.59375 -93.929688 21.316406 -93.828125 24.140625 -93.828125 C 27.960938 -93.828125 32.382812 -93.929688 37.40625 -94.140625 L 45.703125 -94.28125 C 45.910156 -94.28125 46.015625 -93.976562 46.015625 -93.375 C 46.015625 -92.78125 45.910156 -92.484375 45.703125 -92.484375 C 42.085938 -92.484375 39.425781 -92.179688 37.71875 -91.578125 C 36.007812 -90.972656 34.828125 -89.941406 34.171875 -88.484375 C 33.515625 -87.023438 33.1875 -84.785156 33.1875 -81.765625 L 33.1875 -51.140625 L 81.921875 -51.140625 L 81.921875 -81.765625 C 81.921875 -84.785156 81.617188 -87.023438 81.015625 -88.484375 C 80.410156 -89.941406 79.253906 -90.972656 77.546875 -91.578125 C 75.835938 -92.179688 73.117188 -92.484375 69.390625 -92.484375 C 69.085938 -92.484375 68.9375 -92.78125 68.9375 -93.375 C 68.9375 -93.976562 69.085938 -94.28125 69.390625 -94.28125 L 76.78125 -94.140625 C 81.8125 -93.929688 86.335938 -93.828125 90.359375 -93.828125 C 93.078125 -93.828125 96.953125 -93.929688 101.984375 -94.140625 L 110.421875 -94.28125 C 110.722656 -94.28125 110.875 -93.976562 110.875 -93.375 C 110.875 -92.78125 110.722656 -92.484375 110.421875 -92.484375 C 107.003906 -92.484375 104.46875 -92.203125 102.8125 -91.640625 C 101.15625 -91.085938 100.046875 -90.109375 99.484375 -88.703125 C 98.929688 -87.296875 98.65625 -85.082031 98.65625 -82.0625 L 98.65625 -12.21875 C 98.65625 -9.195312 98.929688 -6.957031 99.484375 -5.5 C 100.046875 -4.039062 101.128906 -3.0625 102.734375 -2.5625 C 104.347656 -2.0625 106.910156 -1.8125 110.421875 -1.8125 Z M 110.421875 -1.8125 "/></g></g></g><g fill="#1b2a45" fill-opacity="1"><g transform="translate(227.854121, 292.614877)"><g><path d="M 109.078125 -94.28125 C 109.273438 -94.28125 109.375 -93.976562 109.375 -93.375 C 109.375 -92.78125 109.273438 -92.484375 109.078125 -92.484375 C 105.046875 -92.484375 101.875 -90.894531 99.5625 -87.71875 C 97.25 -84.550781 96.09375 -80.304688 96.09375 -74.984375 L 96.09375 2.265625 C 96.09375 2.566406 95.863281 2.765625 95.40625 2.859375 C 94.957031 2.960938 94.632812 2.914062 94.4375 2.71875 L 23.6875 -77.84375 L 23.6875 -19.15625 C 23.6875 -13.820312 24.789062 -9.597656 27 -6.484375 C 29.21875 -3.367188 32.285156 -1.8125 36.203125 -1.8125 C 36.410156 -1.8125 36.515625 -1.507812 36.515625 -0.90625 C 36.515625 -0.300781 36.410156 0 36.203125 0 C 33.390625 0 31.226562 -0.0507812 29.71875 -0.15625 L 21.578125 -0.296875 L 12.21875 -0.15625 C 10.507812 -0.0507812 8.046875 0 4.828125 0 C 4.523438 0 4.375 -0.300781 4.375 -0.90625 C 4.375 -1.507812 4.523438 -1.8125 4.828125 -1.8125 C 9.253906 -1.8125 12.75 -3.367188 15.3125 -6.484375 C 17.875 -9.597656 19.15625 -13.820312 19.15625 -19.15625 L 19.15625 -82.96875 C 15.84375 -86.59375 13.003906 -89.082031 10.640625 -90.4375 C 8.273438 -91.800781 5.832031 -92.484375 3.3125 -92.484375 C 3.113281 -92.484375 3.015625 -92.78125 3.015625 -93.375 C 3.015625 -93.976562 3.113281 -94.28125 3.3125 -94.28125 L 9.65625 -94.140625 C 10.957031 -94.035156 12.867188 -93.984375 15.390625 -93.984375 L 26.859375 -94.140625 C 28.265625 -94.234375 29.972656 -94.28125 31.984375 -94.28125 C 32.785156 -94.28125 33.382812 -94.078125 33.78125 -93.671875 C 34.1875 -93.273438 34.894531 -92.425781 35.90625 -91.125 C 37.613281 -88.8125 38.820312 -87.25 39.53125 -86.4375 L 91.71875 -26.25 L 91.71875 -74.984375 C 91.71875 -80.410156 90.609375 -84.679688 88.390625 -87.796875 C 86.179688 -90.921875 83.117188 -92.484375 79.203125 -92.484375 C 79.003906 -92.484375 78.90625 -92.78125 78.90625 -93.375 C 78.90625 -93.976562 79.003906 -94.28125 79.203125 -94.28125 L 85.6875 -94.140625 C 88.90625 -93.929688 91.617188 -93.828125 93.828125 -93.828125 C 95.847656 -93.828125 98.664062 -93.929688 102.28125 -94.140625 Z M 109.078125 -94.28125 "/></g></g></g><g fill="#1b2a45" fill-opacity="1"><g transform="translate(341.754951, 292.614877)"><g><path d="M 110.421875 -1.8125 C 110.722656 -1.8125 110.875 -1.507812 110.875 -0.90625 C 110.875 -0.300781 110.722656 0 110.421875 0 C 106.910156 0 104.097656 -0.0507812 101.984375 -0.15625 L 90.359375 -0.296875 L 76.78125 -0.15625 C 74.976562 -0.0507812 72.515625 0 69.390625 0 C 69.085938 0 68.9375 -0.300781 68.9375 -0.90625 C 68.9375 -1.507812 69.085938 -1.8125 69.390625 -1.8125 C 73.117188 -1.8125 75.835938 -2.0625 77.546875 -2.5625 C 79.253906 -3.0625 80.410156 -4.015625 81.015625 -5.421875 C 81.617188 -6.835938 81.921875 -9.101562 81.921875 -12.21875 L 81.921875 -46.921875 L 33.1875 -46.921875 L 33.1875 -12.21875 C 33.1875 -9.195312 33.488281 -6.957031 34.09375 -5.5 C 34.695312 -4.039062 35.851562 -3.0625 37.5625 -2.5625 C 39.269531 -2.0625 41.984375 -1.8125 45.703125 -1.8125 C 45.910156 -1.8125 46.015625 -1.507812 46.015625 -0.90625 C 46.015625 -0.300781 45.910156 0 45.703125 0 C 42.191406 0 39.378906 -0.0507812 37.265625 -0.15625 L 24.140625 -0.296875 L 12.828125 -0.15625 C 10.816406 -0.0507812 8.050781 0 4.53125 0 C 4.320312 0 4.21875 -0.300781 4.21875 -0.90625 C 4.21875 -1.507812 4.320312 -1.8125 4.53125 -1.8125 C 8.050781 -1.8125 10.613281 -2.0625 12.21875 -2.5625 C 13.832031 -3.0625 14.9375 -4.039062 15.53125 -5.5 C 16.132812 -6.957031 16.4375 -9.195312 16.4375 -12.21875 L 16.4375 -82.0625 C 16.4375 -85.082031 16.132812 -87.296875 15.53125 -88.703125 C 14.9375 -90.109375 13.859375 -91.085938 12.296875 -91.640625 C 10.734375 -92.203125 8.242188 -92.484375 4.828125 -92.484375 C 4.523438 -92.484375 4.375 -92.78125 4.375 -93.375 C 4.375 -93.976562 4.523438 -94.28125 4.828125 -94.28125 L 12.96875 -94.140625 C 17.59375 -93.929688 21.316406 -93.828125 24.140625 -93.828125 C 27.960938 -93.828125 32.382812 -93.929688 37.40625 -94.140625 L 45.703125 -94.28125 C 45.910156 -94.28125 46.015625 -93.976562 46.015625 -93.375 C 46.015625 -92.78125 45.910156 -92.484375 45.703125 -92.484375 C 42.085938 -92.484375 39.425781 -92.179688 37.71875 -91.578125 C 36.007812 -90.972656 34.828125 -89.941406 34.171875 -88.484375 C 33.515625 -87.023438 33.1875 -84.785156 33.1875 -81.765625 L 33.1875 -51.140625 L 81.921875 -51.140625 L 81.921875 -81.765625 C 81.921875 -84.785156 81.617188 -87.023438 81.015625 -88.484375 C 80.410156 -89.941406 79.253906 -90.972656 77.546875 -91.578125 C 75.835938 -92.179688 73.117188 -92.484375 69.390625 -92.484375 C 69.085938 -92.484375 68.9375 -92.78125 68.9375 -93.375 C 68.9375 -93.976562 69.085938 -94.28125 69.390625 -94.28125 L 76.78125 -94.140625 C 81.8125 -93.929688 86.335938 -93.828125 90.359375 -93.828125 C 93.078125 -93.828125 96.953125 -93.929688 101.984375 -94.140625 L 110.421875 -94.28125 C 110.722656 -94.28125 110.875 -93.976562 110.875 -93.375 C 110.875 -92.78125 110.722656 -92.484375 110.421875 -92.484375 C 107.003906 -92.484375 104.46875 -92.203125 102.8125 -91.640625 C 101.15625 -91.085938 100.046875 -90.109375 99.484375 -88.703125 C 98.929688 -87.296875 98.65625 -85.082031 98.65625 -82.0625 L 98.65625 -12.21875 C 98.65625 -9.195312 98.929688 -6.957031 99.484375 -5.5 C 100.046875 -4.039062 101.128906 -3.0625 102.734375 -2.5625 C 104.347656 -2.0625 106.910156 -1.8125 110.421875 -1.8125 Z M 110.421875 -1.8125 "/></g></g></g><g fill="#1b2a45" fill-opacity="1"><g transform="translate(235.383223, 391.427077)"><g><path d="M 33.28125 -11.8125 L 8.9375 -11.8125 L 3.59375 0 L 0.296875 0 L 19.609375 -41.96875 L 22.65625 -41.96875 L 41.96875 0 L 38.671875 0 Z M 32.140625 -14.390625 L 21.109375 -38.609375 L 10.125 -14.390625 Z M 32.140625 -14.390625 "/></g></g></g><g fill="#1b2a45" fill-opacity="1"><g transform="translate(277.645614, 391.427077)"><g><path d="M 7.3125 -41.96875 L 10.375 -41.96875 L 10.375 0 L 7.3125 0 Z M 7.3125 -41.96875 "/></g></g></g><g fill="#1b2a45" fill-opacity="1"><g transform="translate(295.329876, 391.427077)"><g/></g></g><g fill="#1b2a45" fill-opacity="1"><g transform="translate(310.736167, 391.427077)"><g><path d="M 6.359375 -31.296875 L 9.359375 -31.296875 L 9.359375 0 L 6.359375 0 Z M 7.859375 -38.90625 C 7.179688 -38.90625 6.601562 -39.132812 6.125 -39.59375 C 5.644531 -40.050781 5.40625 -40.625 5.40625 -41.3125 C 5.40625 -41.988281 5.644531 -42.566406 6.125 -43.046875 C 6.601562 -43.523438 7.179688 -43.765625 7.859375 -43.765625 C 8.535156 -43.765625 9.113281 -43.535156 9.59375 -43.078125 C 10.070312 -42.617188 10.3125 -42.050781 10.3125 -41.375 C 10.3125 -40.6875 10.070312 -40.101562 9.59375 -39.625 C 9.113281 -39.144531 8.535156 -38.90625 7.859375 -38.90625 Z M 7.859375 -38.90625 "/></g></g></g><g fill="#1b2a45" fill-opacity="1"><g transform="translate(326.382238, 391.427077)"><g><path d="M 21.640625 -31.53125 C 25.554688 -31.53125 28.65625 -30.390625 30.9375 -28.109375 C 33.21875 -25.835938 34.359375 -22.5625 34.359375 -18.28125 L 34.359375 0 L 31.359375 0 L 31.359375 -18.046875 C 31.359375 -21.566406 30.46875 -24.242188 28.6875 -26.078125 C 26.90625 -27.921875 24.414062 -28.84375 21.21875 -28.84375 C 17.539062 -28.84375 14.644531 -27.742188 12.53125 -25.546875 C 10.414062 -23.347656 9.359375 -20.390625 9.359375 -16.671875 L 9.359375 0 L 6.359375 0 L 6.359375 -31.296875 L 9.234375 -31.296875 L 9.234375 -24.515625 C 10.304688 -26.710938 11.910156 -28.429688 14.046875 -29.671875 C 16.191406 -30.910156 18.722656 -31.53125 21.640625 -31.53125 Z M 21.640625 -31.53125 "/></g></g></g><g fill="#1b2a45" fill-opacity="1"><g transform="translate(366.726337, 391.427077)"><g><path d="M 15.765625 -42.140625 C 11.847656 -42.140625 9.890625 -40.046875 9.890625 -35.859375 L 9.890625 -31.296875 L 19.90625 -31.296875 L 19.90625 -28.71875 L 9.953125 -28.71875 L 9.953125 0 L 6.953125 0 L 6.953125 -28.71875 L 1.203125 -28.71875 L 1.203125 -31.296875 L 6.953125 -31.296875 L 6.953125 -36.09375 C 6.953125 -38.726562 7.710938 -40.820312 9.234375 -42.375 C 10.753906 -43.9375 12.890625 -44.71875 15.640625 -44.71875 C 16.847656 -44.71875 18 -44.546875 19.09375 -44.203125 C 20.195312 -43.867188 21.109375 -43.363281 21.828125 -42.6875 L 20.625 -40.40625 C 19.34375 -41.5625 17.722656 -42.140625 15.765625 -42.140625 Z M 15.765625 -42.140625 "/></g></g></g><g fill="#1b2a45" fill-opacity="1"><g transform="translate(391.184572, 391.427077)"><g><path d="M 9.234375 -24.453125 C 10.191406 -26.734375 11.6875 -28.484375 13.71875 -29.703125 C 15.757812 -30.921875 18.238281 -31.53125 21.15625 -31.53125 L 21.15625 -28.59375 L 20.4375 -28.65625 C 16.96875 -28.65625 14.253906 -27.566406 12.296875 -25.390625 C 10.335938 -23.210938 9.359375 -20.1875 9.359375 -16.3125 L 9.359375 0 L 6.359375 0 L 6.359375 -31.296875 L 9.234375 -31.296875 Z M 9.234375 -24.453125 "/></g></g></g><g fill="#1b2a45" fill-opacity="1"><g transform="translate(414.264035, 391.427077)"><g><path d="M 16.90625 -31.53125 C 20.78125 -31.53125 23.753906 -30.539062 25.828125 -28.5625 C 27.910156 -26.582031 28.953125 -23.675781 28.953125 -19.84375 L 28.953125 0 L 26.078125 0 L 26.078125 -5.578125 C 25.078125 -3.734375 23.617188 -2.300781 21.703125 -1.28125 C 19.785156 -0.269531 17.488281 0.234375 14.8125 0.234375 C 11.332031 0.234375 8.582031 -0.582031 6.5625 -2.21875 C 4.539062 -3.851562 3.53125 -6.007812 3.53125 -8.6875 C 3.53125 -11.289062 4.457031 -13.398438 6.3125 -15.015625 C 8.175781 -16.640625 11.148438 -17.453125 15.234375 -17.453125 L 25.953125 -17.453125 L 25.953125 -19.96875 C 25.953125 -22.882812 25.160156 -25.097656 23.578125 -26.609375 C 22.003906 -28.128906 19.703125 -28.890625 16.671875 -28.890625 C 14.585938 -28.890625 12.597656 -28.53125 10.703125 -27.8125 C 8.804688 -27.09375 7.195312 -26.132812 5.875 -24.9375 L 4.375 -27.09375 C 5.9375 -28.5 7.816406 -29.585938 10.015625 -30.359375 C 12.210938 -31.140625 14.507812 -31.53125 16.90625 -31.53125 Z M 15.234375 -2.21875 C 17.828125 -2.21875 20.03125 -2.816406 21.84375 -4.015625 C 23.664062 -5.210938 25.035156 -6.953125 25.953125 -9.234375 L 25.953125 -15.109375 L 15.28125 -15.109375 C 12.207031 -15.109375 9.976562 -14.546875 8.59375 -13.421875 C 7.21875 -12.304688 6.53125 -10.769531 6.53125 -8.8125 C 6.53125 -6.769531 7.289062 -5.160156 8.8125 -3.984375 C 10.332031 -2.804688 12.472656 -2.21875 15.234375 -2.21875 Z M 15.234375 -2.21875 "/></g></g></g><g fill="#1b2a45" fill-opacity="1"><g transform="translate(449.212943, 391.427077)"><g><path d="M 14.265625 0.234375 C 11.742188 0.234375 9.34375 -0.140625 7.0625 -0.890625 C 4.789062 -1.648438 3.015625 -2.613281 1.734375 -3.78125 L 3.125 -6.171875 C 4.394531 -5.097656 6.039062 -4.195312 8.0625 -3.46875 C 10.082031 -2.75 12.191406 -2.390625 14.390625 -2.390625 C 17.546875 -2.390625 19.875 -2.910156 21.375 -3.953125 C 22.875 -4.992188 23.625 -6.4375 23.625 -8.28125 C 23.625 -9.59375 23.210938 -10.628906 22.390625 -11.390625 C 21.566406 -12.148438 20.554688 -12.707031 19.359375 -13.0625 C 18.160156 -13.425781 16.503906 -13.804688 14.390625 -14.203125 C 11.910156 -14.648438 9.910156 -15.128906 8.390625 -15.640625 C 6.867188 -16.160156 5.566406 -17 4.484375 -18.15625 C 3.410156 -19.320312 2.875 -20.925781 2.875 -22.96875 C 2.875 -25.4375 3.898438 -27.476562 5.953125 -29.09375 C 8.015625 -30.71875 10.945312 -31.53125 14.75 -31.53125 C 16.75 -31.53125 18.726562 -31.25 20.6875 -30.6875 C 22.644531 -30.132812 24.242188 -29.398438 25.484375 -28.484375 L 24.09375 -26.078125 C 22.820312 -26.992188 21.363281 -27.691406 19.71875 -28.171875 C 18.082031 -28.648438 16.40625 -28.890625 14.6875 -28.890625 C 11.769531 -28.890625 9.570312 -28.347656 8.09375 -27.265625 C 6.613281 -26.191406 5.875 -24.773438 5.875 -23.015625 C 5.875 -21.617188 6.289062 -20.53125 7.125 -19.75 C 7.96875 -18.96875 9 -18.390625 10.21875 -18.015625 C 11.4375 -17.640625 13.144531 -17.226562 15.34375 -16.78125 C 17.78125 -16.34375 19.75 -15.875 21.25 -15.375 C 22.75 -14.875 24.019531 -14.0625 25.0625 -12.9375 C 26.101562 -11.820312 26.625 -10.285156 26.625 -8.328125 C 26.625 -5.734375 25.539062 -3.65625 23.375 -2.09375 C 21.21875 -0.539062 18.179688 0.234375 14.265625 0.234375 Z M 14.265625 0.234375 "/></g></g></g><g fill="#1b2a45" fill-opacity="1"><g transform="translate(477.867417, 391.427077)"><g><path d="M 21.890625 -1.984375 C 21.128906 -1.265625 20.175781 -0.710938 19.03125 -0.328125 C 17.894531 0.046875 16.707031 0.234375 15.46875 0.234375 C 12.75 0.234375 10.648438 -0.507812 9.171875 -2 C 7.691406 -3.5 6.953125 -5.59375 6.953125 -8.28125 L 6.953125 -28.71875 L 1.203125 -28.71875 L 1.203125 -31.296875 L 6.953125 -31.296875 L 6.953125 -38.125 L 9.953125 -38.125 L 9.953125 -31.296875 L 19.90625 -31.296875 L 19.90625 -28.71875 L 9.953125 -28.71875 L 9.953125 -8.578125 C 9.953125 -6.535156 10.441406 -4.984375 11.421875 -3.921875 C 12.398438 -2.867188 13.847656 -2.34375 15.765625 -2.34375 C 17.722656 -2.34375 19.34375 -2.921875 20.625 -4.078125 Z M 21.890625 -1.984375 "/></g></g></g><g fill="#1b2a45" fill-opacity="1"><g transform="translate(501.726182, 391.427077)"><g><path d="M 9.234375 -24.453125 C 10.191406 -26.734375 11.6875 -28.484375 13.71875 -29.703125 C 15.757812 -30.921875 18.238281 -31.53125 21.15625 -31.53125 L 21.15625 -28.59375 L 20.4375 -28.65625 C 16.96875 -28.65625 14.253906 -27.566406 12.296875 -25.390625 C 10.335938 -23.210938 9.359375 -20.1875 9.359375 -16.3125 L 9.359375 0 L 6.359375 0 L 6.359375 -31.296875 L 9.234375 -31.296875 Z M 9.234375 -24.453125 "/></g></g></g><g fill="#1b2a45" fill-opacity="1"><g transform="translate(525.345178, 391.427077)"><g><path d="M 33.75 -31.296875 L 33.75 0 L 30.875 0 L 30.875 -6.71875 C 29.832031 -4.519531 28.289062 -2.8125 26.25 -1.59375 C 24.21875 -0.375 21.820312 0.234375 19.0625 0.234375 C 14.988281 0.234375 11.789062 -0.898438 9.46875 -3.171875 C 7.15625 -5.453125 6 -8.734375 6 -13.015625 L 6 -31.296875 L 9 -31.296875 L 9 -13.25 C 9 -9.726562 9.894531 -7.046875 11.6875 -5.203125 C 13.488281 -3.367188 16.03125 -2.453125 19.3125 -2.453125 C 22.820312 -2.453125 25.601562 -3.550781 27.65625 -5.75 C 29.71875 -7.945312 30.75 -10.90625 30.75 -14.625 L 30.75 -31.296875 Z M 33.75 -31.296875 "/></g></g></g><g fill="#1b2a45" fill-opacity="1"><g transform="translate(565.449473, 391.427077)"><g><path d="M 18.765625 0.234375 C 15.722656 0.234375 13.003906 -0.441406 10.609375 -1.796875 C 8.210938 -3.160156 6.332031 -5.050781 4.96875 -7.46875 C 3.613281 -9.882812 2.9375 -12.609375 2.9375 -15.640625 C 2.9375 -18.722656 3.613281 -21.472656 4.96875 -23.890625 C 6.332031 -26.304688 8.210938 -28.179688 10.609375 -29.515625 C 13.003906 -30.859375 15.722656 -31.53125 18.765625 -31.53125 C 21.285156 -31.53125 23.570312 -31.039062 25.625 -30.0625 C 27.6875 -29.082031 29.359375 -27.65625 30.640625 -25.78125 L 28.421875 -24.15625 C 27.296875 -25.71875 25.90625 -26.890625 24.25 -27.671875 C 22.59375 -28.453125 20.765625 -28.84375 18.765625 -28.84375 C 16.328125 -28.84375 14.140625 -28.289062 12.203125 -27.1875 C 10.265625 -26.09375 8.742188 -24.546875 7.640625 -22.546875 C 6.546875 -20.546875 6 -18.242188 6 -15.640625 C 6 -13.046875 6.546875 -10.75 7.640625 -8.75 C 8.742188 -6.75 10.265625 -5.195312 12.203125 -4.09375 C 14.140625 -3 16.328125 -2.453125 18.765625 -2.453125 C 20.765625 -2.453125 22.59375 -2.84375 24.25 -3.625 C 25.90625 -4.40625 27.296875 -5.578125 28.421875 -7.140625 L 30.640625 -5.515625 C 29.359375 -3.640625 27.6875 -2.210938 25.625 -1.234375 C 23.570312 -0.253906 21.285156 0.234375 18.765625 0.234375 Z M 18.765625 0.234375 "/></g></g></g><g fill="#1b2a45" fill-opacity="1"><g transform="translate(599.079557, 391.427077)"><g><path d="M 21.890625 -1.984375 C 21.128906 -1.265625 20.175781 -0.710938 19.03125 -0.328125 C 17.894531 0.046875 16.707031 0.234375 15.46875 0.234375 C 12.75 0.234375 10.648438 -0.507812 9.171875 -2 C 7.691406 -3.5 6.953125 -5.59375 6.953125 -8.28125 L 6.953125 -28.71875 L 1.203125 -28.71875 L 1.203125 -31.296875 L 6.953125 -31.296875 L 6.953125 -38.125 L 9.953125 -38.125 L 9.953125 -31.296875 L 19.90625 -31.296875 L 19.90625 -28.71875 L 9.953125 -28.71875 L 9.953125 -8.578125 C 9.953125 -6.535156 10.441406 -4.984375 11.421875 -3.921875 C 12.398438 -2.867188 13.847656 -2.34375 15.765625 -2.34375 C 17.722656 -2.34375 19.34375 -2.921875 20.625 -4.078125 Z M 21.890625 -1.984375 "/></g></g></g><g fill="#1b2a45" fill-opacity="1"><g transform="translate(622.938299, 391.427077)"><g><path d="M 33.75 -31.296875 L 33.75 0 L 30.875 0 L 30.875 -6.71875 C 29.832031 -4.519531 28.289062 -2.8125 26.25 -1.59375 C 24.21875 -0.375 21.820312 0.234375 19.0625 0.234375 C 14.988281 0.234375 11.789062 -0.898438 9.46875 -3.171875 C 7.15625 -5.453125 6 -8.734375 6 -13.015625 L 6 -31.296875 L 9 -31.296875 L 9 -13.25 C 9 -9.726562 9.894531 -7.046875 11.6875 -5.203125 C 13.488281 -3.367188 16.03125 -2.453125 19.3125 -2.453125 C 22.820312 -2.453125 25.601562 -3.550781 27.65625 -5.75 C 29.71875 -7.945312 30.75 -10.90625 30.75 -14.625 L 30.75 -31.296875 Z M 33.75 -31.296875 "/></g></g></g><g fill="#1b2a45" fill-opacity="1"><g transform="translate(663.042616, 391.427077)"><g><path d="M 9.234375 -24.453125 C 10.191406 -26.734375 11.6875 -28.484375 13.71875 -29.703125 C 15.757812 -30.921875 18.238281 -31.53125 21.15625 -31.53125 L 21.15625 -28.59375 L 20.4375 -28.65625 C 16.96875 -28.65625 14.253906 -27.566406 12.296875 -25.390625 C 10.335938 -23.210938 9.359375 -20.1875 9.359375 -16.3125 L 9.359375 0 L 6.359375 0 L 6.359375 -31.296875 L 9.234375 -31.296875 Z M 9.234375 -24.453125 "/></g></g></g><g fill="#1b2a45" fill-opacity="1"><g transform="translate(685.822338, 391.427077)"><g><path d="M 32.796875 -14.921875 L 5.875 -14.921875 C 5.957031 -12.484375 6.578125 -10.316406 7.734375 -8.421875 C 8.890625 -6.523438 10.457031 -5.054688 12.4375 -4.015625 C 14.414062 -2.972656 16.644531 -2.453125 19.125 -2.453125 C 21.164062 -2.453125 23.054688 -2.820312 24.796875 -3.5625 C 26.535156 -4.300781 27.984375 -5.390625 29.140625 -6.828125 L 30.875 -4.859375 C 29.519531 -3.210938 27.8125 -1.953125 25.75 -1.078125 C 23.6875 -0.203125 21.457031 0.234375 19.0625 0.234375 C 15.945312 0.234375 13.171875 -0.441406 10.734375 -1.796875 C 8.296875 -3.160156 6.382812 -5.039062 5 -7.4375 C 3.625 -9.832031 2.9375 -12.566406 2.9375 -15.640625 C 2.9375 -18.679688 3.582031 -21.410156 4.875 -23.828125 C 6.175781 -26.242188 7.96875 -28.128906 10.25 -29.484375 C 12.53125 -30.847656 15.085938 -31.53125 17.921875 -31.53125 C 20.765625 -31.53125 23.3125 -30.859375 25.5625 -29.515625 C 27.820312 -28.179688 29.601562 -26.316406 30.90625 -23.921875 C 32.207031 -21.523438 32.859375 -18.804688 32.859375 -15.765625 Z M 17.921875 -28.890625 C 15.722656 -28.890625 13.742188 -28.398438 11.984375 -27.421875 C 10.234375 -26.441406 8.828125 -25.0625 7.765625 -23.28125 C 6.703125 -21.507812 6.09375 -19.503906 5.9375 -17.265625 L 29.921875 -17.265625 C 29.796875 -19.503906 29.191406 -21.503906 28.109375 -23.265625 C 27.035156 -25.023438 25.617188 -26.398438 23.859375 -27.390625 C 22.097656 -28.390625 20.117188 -28.890625 17.921875 -28.890625 Z M 17.921875 -28.890625 "/></g></g></g><g fill="#1b2a45" fill-opacity="1"><g transform="translate(721.610532, 391.427077)"><g><path d="M 6 0.234375 C 5.3125 0.234375 4.71875 -0.015625 4.21875 -0.515625 C 3.726562 -1.015625 3.484375 -1.625 3.484375 -2.34375 C 3.484375 -3.0625 3.726562 -3.660156 4.21875 -4.140625 C 4.71875 -4.617188 5.3125 -4.859375 6 -4.859375 C 6.675781 -4.859375 7.265625 -4.617188 7.765625 -4.140625 C 8.265625 -3.660156 8.515625 -3.0625 8.515625 -2.34375 C 8.515625 -1.625 8.265625 -1.015625 7.765625 -0.515625 C 7.265625 -0.015625 6.675781 0.234375 6 0.234375 Z M 6 0.234375 "/></g></g></g><g fill="#1b2a45" fill-opacity="1"><g transform="translate(733.599828, 391.427077)"><g/></g></g><g fill="#1b2a45" fill-opacity="1"><g transform="translate(749.006131, 391.427077)"><g><path d="M 41.484375 -41.96875 L 41.484375 0 L 38.4375 0 L 38.4375 -19.96875 L 10.375 -19.96875 L 10.375 0 L 7.3125 0 L 7.3125 -41.96875 L 10.375 -41.96875 L 10.375 -22.65625 L 38.4375 -22.65625 L 38.4375 -41.96875 Z M 41.484375 -41.96875 "/></g></g></g><g fill="#1b2a45" fill-opacity="1"><g transform="translate(797.802703, 391.427077)"><g><path d="M 33.75 -31.296875 L 33.75 0 L 30.875 0 L 30.875 -6.71875 C 29.832031 -4.519531 28.289062 -2.8125 26.25 -1.59375 C 24.21875 -0.375 21.820312 0.234375 19.0625 0.234375 C 14.988281 0.234375 11.789062 -0.898438 9.46875 -3.171875 C 7.15625 -5.453125 6 -8.734375 6 -13.015625 L 6 -31.296875 L 9 -31.296875 L 9 -13.25 C 9 -9.726562 9.894531 -7.046875 11.6875 -5.203125 C 13.488281 -3.367188 16.03125 -2.453125 19.3125 -2.453125 C 22.820312 -2.453125 25.601562 -3.550781 27.65625 -5.75 C 29.71875 -7.945312 30.75 -10.90625 30.75 -14.625 L 30.75 -31.296875 Z M 33.75 -31.296875 "/></g></g></g><g fill="#1b2a45" fill-opacity="1"><g transform="translate(837.90702, 391.427077)"><g><path d="M 45.328125 -31.53125 C 49.203125 -31.53125 52.25 -30.390625 54.46875 -28.109375 C 56.6875 -25.835938 57.796875 -22.5625 57.796875 -18.28125 L 57.796875 0 L 54.796875 0 L 54.796875 -18.046875 C 54.796875 -21.566406 53.9375 -24.242188 52.21875 -26.078125 C 50.5 -27.921875 48.101562 -28.84375 45.03125 -28.84375 C 41.507812 -28.84375 38.71875 -27.742188 36.65625 -25.546875 C 34.601562 -23.347656 33.578125 -20.390625 33.578125 -16.671875 L 33.578125 0 L 30.578125 0 L 30.578125 -18.046875 C 30.578125 -21.566406 29.71875 -24.242188 28 -26.078125 C 26.28125 -27.921875 23.878906 -28.84375 20.796875 -28.84375 C 17.285156 -28.84375 14.5 -27.742188 12.4375 -25.546875 C 10.382812 -23.347656 9.359375 -20.390625 9.359375 -16.671875 L 9.359375 0 L 6.359375 0 L 6.359375 -31.296875 L 9.234375 -31.296875 L 9.234375 -24.578125 C 10.273438 -26.773438 11.820312 -28.484375 13.875 -29.703125 C 15.9375 -30.921875 18.382812 -31.53125 21.21875 -31.53125 C 24.0625 -31.53125 26.472656 -30.890625 28.453125 -29.609375 C 30.429688 -28.335938 31.835938 -26.460938 32.671875 -23.984375 C 33.710938 -26.296875 35.34375 -28.128906 37.5625 -29.484375 C 39.78125 -30.847656 42.367188 -31.53125 45.328125 -31.53125 Z M 45.328125 -31.53125 "/></g></g></g><g fill="#1b2a45" fill-opacity="1"><g transform="translate(901.690224, 391.427077)"><g><path d="M 16.90625 -31.53125 C 20.78125 -31.53125 23.753906 -30.539062 25.828125 -28.5625 C 27.910156 -26.582031 28.953125 -23.675781 28.953125 -19.84375 L 28.953125 0 L 26.078125 0 L 26.078125 -5.578125 C 25.078125 -3.734375 23.617188 -2.300781 21.703125 -1.28125 C 19.785156 -0.269531 17.488281 0.234375 14.8125 0.234375 C 11.332031 0.234375 8.582031 -0.582031 6.5625 -2.21875 C 4.539062 -3.851562 3.53125 -6.007812 3.53125 -8.6875 C 3.53125 -11.289062 4.457031 -13.398438 6.3125 -15.015625 C 8.175781 -16.640625 11.148438 -17.453125 15.234375 -17.453125 L 25.953125 -17.453125 L 25.953125 -19.96875 C 25.953125 -22.882812 25.160156 -25.097656 23.578125 -26.609375 C 22.003906 -28.128906 19.703125 -28.890625 16.671875 -28.890625 C 14.585938 -28.890625 12.597656 -28.53125 10.703125 -27.8125 C 8.804688 -27.09375 7.195312 -26.132812 5.875 -24.9375 L 4.375 -27.09375 C 5.9375 -28.5 7.816406 -29.585938 10.015625 -30.359375 C 12.210938 -31.140625 14.507812 -31.53125 16.90625 -31.53125 Z M 15.234375 -2.21875 C 17.828125 -2.21875 20.03125 -2.816406 21.84375 -4.015625 C 23.664062 -5.210938 25.035156 -6.953125 25.953125 -9.234375 L 25.953125 -15.109375 L 15.28125 -15.109375 C 12.207031 -15.109375 9.976562 -14.546875 8.59375 -13.421875 C 7.21875 -12.304688 6.53125 -10.769531 6.53125 -8.8125 C 6.53125 -6.769531 7.289062 -5.160156 8.8125 -3.984375 C 10.332031 -2.804688 12.472656 -2.21875 15.234375 -2.21875 Z M 15.234375 -2.21875 "/></g></g></g><g fill="#1b2a45" fill-opacity="1"><g transform="translate(936.639167, 391.427077)"><g><path d="M 21.640625 -31.53125 C 25.554688 -31.53125 28.65625 -30.390625 30.9375 -28.109375 C 33.21875 -25.835938 34.359375 -22.5625 34.359375 -18.28125 L 34.359375 0 L 31.359375 0 L 31.359375 -18.046875 C 31.359375 -21.566406 30.46875 -24.242188 28.6875 -26.078125 C 26.90625 -27.921875 24.414062 -28.84375 21.21875 -28.84375 C 17.539062 -28.84375 14.644531 -27.742188 12.53125 -25.546875 C 10.414062 -23.347656 9.359375 -20.390625 9.359375 -16.671875 L 9.359375 0 L 6.359375 0 L 6.359375 -31.296875 L 9.234375 -31.296875 L 9.234375 -24.515625 C 10.304688 -26.710938 11.910156 -28.429688 14.046875 -29.671875 C 16.191406 -30.910156 18.722656 -31.53125 21.640625 -31.53125 Z M 21.640625 -31.53125 "/></g></g></g><g fill="#1b2a45" fill-opacity="1"><g transform="translate(976.983232, 391.427077)"><g/></g></g><g fill="#1b2a45" fill-opacity="1"><g transform="translate(992.389535, 391.427077)"><g><path d="M 15.765625 -42.140625 C 11.847656 -42.140625 9.890625 -40.046875 9.890625 -35.859375 L 9.890625 -31.296875 L 19.90625 -31.296875 L 19.90625 -28.71875 L 9.953125 -28.71875 L 9.953125 0 L 6.953125 0 L 6.953125 -28.71875 L 1.203125 -28.71875 L 1.203125 -31.296875 L 6.953125 -31.296875 L 6.953125 -36.09375 C 6.953125 -38.726562 7.710938 -40.820312 9.234375 -42.375 C 10.753906 -43.9375 12.890625 -44.71875 15.640625 -44.71875 C 16.847656 -44.71875 18 -44.546875 19.09375 -44.203125 C 20.195312 -43.867188 21.109375 -43.363281 21.828125 -42.6875 L 20.625 -40.40625 C 19.34375 -41.5625 17.722656 -42.140625 15.765625 -42.140625 Z M 15.765625 -42.140625 "/></g></g></g><g fill="#1b2a45" fill-opacity="1"><g transform="translate(1016.847804, 391.427077)"><g><path d="M 9.234375 -24.453125 C 10.191406 -26.734375 11.6875 -28.484375 13.71875 -29.703125 C 15.757812 -30.921875 18.238281 -31.53125 21.15625 -31.53125 L 21.15625 -28.59375 L 20.4375 -28.65625 C 16.96875 -28.65625 14.253906 -27.566406 12.296875 -25.390625 C 10.335938 -23.210938 9.359375 -20.1875 9.359375 -16.3125 L 9.359375 0 L 6.359375 0 L 6.359375 -31.296875 L 9.234375 -31.296875 Z M 9.234375 -24.453125 "/></g></g></g><g fill="#1b2a45" fill-opacity="1"><g transform="translate(1039.62748, 391.427077)"><g><path d="M 32.796875 -14.921875 L 5.875 -14.921875 C 5.957031 -12.484375 6.578125 -10.316406 7.734375 -8.421875 C 8.890625 -6.523438 10.457031 -5.054688 12.4375 -4.015625 C 14.414062 -2.972656 16.644531 -2.453125 19.125 -2.453125 C 21.164062 -2.453125 23.054688 -2.820312 24.796875 -3.5625 C 26.535156 -4.300781 27.984375 -5.390625 29.140625 -6.828125 L 30.875 -4.859375 C 29.519531 -3.210938 27.8125 -1.953125 25.75 -1.078125 C 23.6875 -0.203125 21.457031 0.234375 19.0625 0.234375 C 15.945312 0.234375 13.171875 -0.441406 10.734375 -1.796875 C 8.296875 -3.160156 6.382812 -5.039062 5 -7.4375 C 3.625 -9.832031 2.9375 -12.566406 2.9375 -15.640625 C 2.9375 -18.679688 3.582031 -21.410156 4.875 -23.828125 C 6.175781 -26.242188 7.96875 -28.128906 10.25 -29.484375 C 12.53125 -30.847656 15.085938 -31.53125 17.921875 -31.53125 C 20.765625 -31.53125 23.3125 -30.859375 25.5625 -29.515625 C 27.820312 -28.179688 29.601562 -26.316406 30.90625 -23.921875 C 32.207031 -21.523438 32.859375 -18.804688 32.859375 -15.765625 Z M 17.921875 -28.890625 C 15.722656 -28.890625 13.742188 -28.398438 11.984375 -27.421875 C 10.234375 -26.441406 8.828125 -25.0625 7.765625 -23.28125 C 6.703125 -21.507812 6.09375 -19.503906 5.9375 -17.265625 L 29.921875 -17.265625 C 29.796875 -19.503906 29.191406 -21.503906 28.109375 -23.265625 C 27.035156 -25.023438 25.617188 -26.398438 23.859375 -27.390625 C 22.097656 -28.390625 20.117188 -28.890625 17.921875 -28.890625 Z M 17.921875 -28.890625 "/></g></g></g><g fill="#1b2a45" fill-opacity="1"><g transform="translate(1075.415673, 391.427077)"><g><path d="M 32.796875 -14.921875 L 5.875 -14.921875 C 5.957031 -12.484375 6.578125 -10.316406 7.734375 -8.421875 C 8.890625 -6.523438 10.457031 -5.054688 12.4375 -4.015625 C 14.414062 -2.972656 16.644531 -2.453125 19.125 -2.453125 C 21.164062 -2.453125 23.054688 -2.820312 24.796875 -3.5625 C 26.535156 -4.300781 27.984375 -5.390625 29.140625 -6.828125 L 30.875 -4.859375 C 29.519531 -3.210938 27.8125 -1.953125 25.75 -1.078125 C 23.6875 -0.203125 21.457031 0.234375 19.0625 0.234375 C 15.945312 0.234375 13.171875 -0.441406 10.734375 -1.796875 C 8.296875 -3.160156 6.382812 -5.039062 5 -7.4375 C 3.625 -9.832031 2.9375 -12.566406 2.9375 -15.640625 C 2.9375 -18.679688 3.582031 -21.410156 4.875 -23.828125 C 6.175781 -26.242188 7.96875 -28.128906 10.25 -29.484375 C 12.53125 -30.847656 15.085938 -31.53125 17.921875 -31.53125 C 20.765625 -31.53125 23.3125 -30.859375 25.5625 -29.515625 C 27.820312 -28.179688 29.601562 -26.316406 30.90625 -23.921875 C 32.207031 -21.523438 32.859375 -18.804688 32.859375 -15.765625 Z M 17.921875 -28.890625 C 15.722656 -28.890625 13.742188 -28.398438 11.984375 -27.421875 C 10.234375 -26.441406 8.828125 -25.0625 7.765625 -23.28125 C 6.703125 -21.507812 6.09375 -19.503906 5.9375 -17.265625 L 29.921875 -17.265625 C 29.796875 -19.503906 29.191406 -21.503906 28.109375 -23.265625 C 27.035156 -25.023438 25.617188 -26.398438 23.859375 -27.390625 C 22.097656 -28.390625 20.117188 -28.890625 17.921875 -28.890625 Z M 17.921875 -28.890625 "/></g></g></g><g fill="#1b2a45" fill-opacity="1"><g transform="translate(1111.203775, 391.427077)"><g><path d="M 34.171875 -44.484375 L 34.171875 0 L 31.234375 0 L 31.234375 -7.375 C 29.992188 -4.9375 28.253906 -3.054688 26.015625 -1.734375 C 23.773438 -0.421875 21.238281 0.234375 18.40625 0.234375 C 15.488281 0.234375 12.847656 -0.441406 10.484375 -1.796875 C 8.128906 -3.160156 6.28125 -5.039062 4.9375 -7.4375 C 3.601562 -9.832031 2.9375 -12.566406 2.9375 -15.640625 C 2.9375 -18.722656 3.601562 -21.472656 4.9375 -23.890625 C 6.28125 -26.304688 8.128906 -28.179688 10.484375 -29.515625 C 12.847656 -30.859375 15.488281 -31.53125 18.40625 -31.53125 C 21.207031 -31.53125 23.710938 -30.867188 25.921875 -29.546875 C 28.140625 -28.234375 29.890625 -26.398438 31.171875 -24.046875 L 31.171875 -44.484375 Z M 18.578125 -2.453125 C 20.984375 -2.453125 23.132812 -3.007812 25.03125 -4.125 C 26.925781 -5.25 28.421875 -6.8125 29.515625 -8.8125 C 30.617188 -10.8125 31.171875 -13.085938 31.171875 -15.640625 C 31.171875 -18.203125 30.617188 -20.484375 29.515625 -22.484375 C 28.421875 -24.484375 26.925781 -26.039062 25.03125 -27.15625 C 23.132812 -28.28125 20.984375 -28.84375 18.578125 -28.84375 C 16.179688 -28.84375 14.035156 -28.28125 12.140625 -27.15625 C 10.242188 -26.039062 8.742188 -24.484375 7.640625 -22.484375 C 6.546875 -20.484375 6 -18.203125 6 -15.640625 C 6 -13.085938 6.546875 -10.8125 7.640625 -8.8125 C 8.742188 -6.8125 10.242188 -5.25 12.140625 -4.125 C 14.035156 -3.007812 16.179688 -2.453125 18.578125 -2.453125 Z M 18.578125 -2.453125 "/></g></g><g transform="translate(1151.667804, 391.427077)"><g><path d="M 18.578125 0.234375 C 15.628906 0.234375 12.960938 -0.441406 10.578125 -1.796875 C 8.203125 -3.160156 6.332031 -5.050781 4.96875 -7.46875 C 3.613281 -9.882812 2.9375 -12.609375 2.9375 -15.640625 C 2.9375 -18.679688 3.613281 -21.410156 4.96875 -23.828125 C 6.332031 -26.242188 8.203125 -28.128906 10.578125 -29.484375 C 12.960938 -30.847656 15.628906 -31.53125 18.578125 -31.53125 C 21.535156 -31.53125 24.203125 -30.847656 26.578125 -29.484375 C 28.960938 -28.128906 30.832031 -26.242188 32.1875 -23.828125 C 33.550781 -21.410156 34.234375 -18.679688 34.234375 -15.640625 C 34.234375 -12.609375 33.550781 -9.882812 32.1875 -7.46875 C 30.832031 -5.050781 28.960938 -3.160156 26.578125 -1.796875 C 24.203125 -0.441406 21.535156 0.234375 18.578125 0.234375 Z M 18.578125 -2.453125 C 20.984375 -2.453125 23.132812 -3.007812 25.03125 -4.125 C 26.925781 -5.25 28.421875 -6.8125 29.515625 -8.8125 C 30.617188 -10.8125 31.171875 -13.085938 31.171875 -15.640625 C 31.171875 -18.203125 30.617188 -20.484375 29.515625 -22.484375 C 28.421875 -24.484375 26.925781 -26.039062 25.03125 -27.15625 C 23.132812 -28.28125 20.984375 -28.84375 18.578125 -28.84375 C 16.179688 -28.84375 14.035156 -28.28125 12.140625 -27.15625 C 10.242188 -26.039062 8.742188 -24.484375 7.640625 -22.484375 C 6.546875 -20.484375 6 -18.203125 6 -15.640625 C 6 -13.085938 6.546875 -10.8125 7.640625 -8.8125 C 8.742188 -6.8125 10.242188 -5.25 12.140625 -4.125 C 14.035156 -3.007812 16.179688 -2.453125 18.578125 -2.453125 Z M 18.578125 -2.453125 "/></g></g></g><g fill="#1b2a45" fill-opacity="1"><g transform="translate(1188.834746, 391.427077)"><g><path d="M 45.328125 -31.53125 C 49.203125 -31.53125 52.25 -30.390625 54.46875 -28.109375 C 56.6875 -25.835938 57.796875 -22.5625 57.796875 -18.28125 L 57.796875 0 L 54.796875 0 L 54.796875 -18.046875 C 54.796875 -21.566406 53.9375 -24.242188 52.21875 -26.078125 C 50.5 -27.921875 48.101562 -28.84375 45.03125 -28.84375 C 41.507812 -28.84375 38.71875 -27.742188 36.65625 -25.546875 C 34.601562 -23.347656 33.578125 -20.390625 33.578125 -16.671875 L 33.578125 0 L 30.578125 0 L 30.578125 -18.046875 C 30.578125 -21.566406 29.71875 -24.242188 28 -26.078125 C 26.28125 -27.921875 23.878906 -28.84375 20.796875 -28.84375 C 17.285156 -28.84375 14.5 -27.742188 12.4375 -25.546875 C 10.382812 -23.347656 9.359375 -20.390625 9.359375 -16.671875 L 9.359375 0 L 6.359375 0 L 6.359375 -31.296875 L 9.234375 -31.296875 L 9.234375 -24.578125 C 10.273438 -26.773438 11.820312 -28.484375 13.875 -29.703125 C 15.9375 -30.921875 18.382812 -31.53125 21.21875 -31.53125 C 24.0625 -31.53125 26.472656 -30.890625 28.453125 -29.609375 C 30.429688 -28.335938 31.835938 -26.460938 32.671875 -23.984375 C 33.710938 -26.296875 35.34375 -28.128906 37.5625 -29.484375 C 39.78125 -30.847656 42.367188 -31.53125 45.328125 -31.53125 Z M 45.328125 -31.53125 "/></g></g></g><g fill="#1b2a45" fill-opacity="1"><g transform="translate(1252.61795, 391.427077)"><g><path d="M 6 0.234375 C 5.3125 0.234375 4.71875 -0.015625 4.21875 -0.515625 C 3.726562 -1.015625 3.484375 -1.625 3.484375 -2.34375 C 3.484375 -3.0625 3.726562 -3.660156 4.21875 -4.140625 C 4.71875 -4.617188 5.3125 -4.859375 6 -4.859375 C 6.675781 -4.859375 7.265625 -4.617188 7.765625 -4.140625 C 8.265625 -3.660156 8.515625 -3.0625 8.515625 -2.34375 C 8.515625 -1.625 8.265625 -1.015625 7.765625 -0.515625 C 7.265625 -0.015625 6.675781 0.234375 6 0.234375 Z M 6 0.234375 "/></g></g></g></svg>